<?xml version="1.0" encoding="UTF-8"?>
<svg id="Calque_2" data-name="Calque 2" xmlns="http://www.w3.org/2000/svg" viewBox="0 0 28.12 24.38">
  <defs>
    <style>
      .cls-1 {
        fill: #f2eacc;
      }

      .cls-2 {
        fill: #f5f5f5;
      }

      .cls-3 {
        fill: #fee801;
      }

      .cls-4 {
        fill: #e5c900;
      }

      .cls-5 {
        fill: #42ade2;
      }

      .cls-6 {
        fill: #9c6525;
      }
    </style>
  </defs>
  <g id="Calque_1-2" data-name="Calque 1-2">
    <g>
      <path class="cls-1" d="m7.22,16.96C0,7.51,1.95-.31,4.58,0c2.09.26,1.95,7.82,7.48,13.13,3.04,4.39-1.8,8.22-4.84,3.83h0Z"/>
      <path class="cls-6" d="m24.46,17.12c.6.82,1.5,1.68,2.31,2.33.5-.55.95-1.15,1.35-1.78l-1.62-1.38c-.65.34-1.33.62-2.04.83Z"/>
      <path class="cls-3" d="m8.92,14.17c3.35,6.63,11.25,8.57,17.85,5.28-.81-.65-1.71-1.51-2.31-2.33-.34.1-.68.19-1.04.26-4.9.95-9.64-1.53-12.04-5.84-.69-1.23,4.03-5.1,7.21-3.4,0,0-2.2-2.37-5.57-1.51-2.86.73-5.46,4.84-4.1,7.54Z"/>
      <path class="cls-4" d="m0,17.45s3.97-3.43,8.38,2.13c2.87,3.13,7.1,4.73,11.44,3.89,2.77-.54,5.16-1.99,6.96-4.01-.33-.27-.67-.57-1-.88-1.26.83-2.67,1.43-4.21,1.73-5.15.99-10.12-1.61-12.65-6.14,0,0-1.98-1.91-5.09-.68C.64,14.75,0,17.44,0,17.44h0Z"/>
      <path class="cls-2" d="m12.87,16.47c1.37.86,2.89.81,3.4-.11v-.02c-.18-.09-.36-.19-.53-.29-.44.69-1.64.71-2.72.03-1.12-.7-1.68-1.87-1.27-2.62.12-.22.33-.37.57-.47-.08-.11-.17-.23-.25-.35-.33.11-.61.31-.77.6-.51.92.19,2.37,1.56,3.23h.01Z"/>
      <path class="cls-5" d="m12.33,12.99c-.25.1-.45.25-.57.47-.41.75.16,1.92,1.27,2.62,1.08.68,2.27.66,2.72-.03-1.31-.77-2.47-1.81-3.42-3.06Z"/>
      <path class="cls-3" d="m5.6,13.08c-4.71,1.99,2.36,11.8-.76,11.28S-.1,19.92,0,17.44c.18-4.36,5.6-4.36,5.6-4.36Z"/>
      <path class="cls-4" d="m18.06,11.81c3.48,1.04,1.12-7.74-5.84-4.88,3.86,1.91,4.58,4.5,5.84,4.88Z"/>
    </g>
  </g>
</svg>